<svg  width="90" height="90" viewBox="0 0 90 90" fill="none" xmlns="http://www.w3.org/2000/svg" className='
group-hover:text-white'>
<path d="M54 24.75C52.8065 24.75 51.6619 25.2241 50.818 26.068C49.9741 26.9119 49.5 28.0565 49.5 29.25C49.5 30.4435 49.9741 31.5881 50.818 32.432C51.6619 33.2759 52.8065 33.75 54 33.75C55.1935 33.75 56.3381 33.2759 57.182 32.432C58.0259 31.5881 58.5 30.4435 58.5 29.25C58.5 28.0565 58.0259 26.9119 57.182 26.068C56.3381 25.2241 55.1935 24.75 54 24.75ZM31.5 29.25C31.5 28.0565 31.9741 26.9119 32.818 26.068C33.6619 25.2241 34.8065 24.75 36 24.75C37.1935 24.75 38.3381 25.2241 39.182 26.068C40.0259 26.9119 40.5 28.0565 40.5 29.25C40.5 30.4435 40.0259 31.5881 39.182 32.432C38.3381 33.2759 37.1935 33.75 36 33.75C34.8065 33.75 33.6619 33.2759 32.818 32.432C31.9741 31.5881 31.5 30.4435 31.5 29.25ZM47.25 11.25C47.25 10.6533 47.0129 10.081 46.591 9.65901C46.169 9.23705 45.5967 9 45 9C44.4033 9 43.831 9.23705 43.409 9.65901C42.9871 10.081 42.75 10.6533 42.75 11.25V13.5H29.25C27.4598 13.5 25.7429 14.2112 24.477 15.477C23.2112 16.7429 22.5 18.4598 22.5 20.25V38.25C22.5 40.0402 23.2112 41.7571 24.477 43.023C25.7429 44.2888 27.4598 45 29.25 45H60.75C62.5402 45 64.2571 44.2888 65.523 43.023C66.7888 41.7571 67.5 40.0402 67.5 38.25V20.25C67.5 18.4598 66.7888 16.7429 65.523 15.477C64.2571 14.2112 62.5402 13.5 60.75 13.5H47.25V11.25ZM29.25 18H60.75C61.3467 18 61.919 18.2371 62.341 18.659C62.7629 19.081 63 19.6533 63 20.25V38.25C63 38.8467 62.7629 39.419 62.341 39.841C61.919 40.2629 61.3467 40.5 60.75 40.5H29.25C28.6533 40.5 28.081 40.2629 27.659 39.841C27.2371 39.419 27 38.8467 27 38.25V20.25C27 19.6533 27.2371 19.081 27.659 18.659C28.081 18.2371 28.6533 18 29.25 18ZM46.125 80.991C57.897 80.8425 65.0025 78.3135 69.174 74.511C73.1115 70.911 74.0745 66.5145 74.2275 63.009H74.25V59.904C74.2488 57.7446 73.3901 55.674 71.8628 54.1475C70.3354 52.621 68.2644 51.7635 66.105 51.7635H51.75V51.75H38.25V51.7635H23.895C19.395 51.7635 15.75 55.4085 15.75 59.9085V63.009H15.7725C15.9255 66.519 16.8885 70.9155 20.826 74.5065C24.9975 78.3135 32.103 80.8425 43.875 80.991V81H46.125V80.991ZM23.895 56.2635H66.105C67.0717 56.2635 67.9988 56.6475 68.6824 57.3311C69.366 58.0147 69.75 58.9418 69.75 59.9085V61.875C69.75 64.98 69.1605 68.427 66.141 71.1855C63.045 74.007 56.97 76.5 45 76.5C33.03 76.5 26.955 74.007 23.859 71.1855C20.844 68.427 20.25 64.9755 20.25 61.875V59.904C20.2512 58.9381 20.6357 58.0121 21.3192 57.3295C22.0026 56.6469 22.9291 56.2635 23.895 56.2635Z" fill="#7B72EB"/>
</svg>
