<svg width="90" height="90" viewBox="0 0 90 90" fill="none" xmlns="http://www.w3.org/2000/svg">
<path d="M70 35.7912C70.0031 31.6047 68.9355 27.4858 66.8969 23.8191C64.8582 20.1523 61.9151 17.0573 58.3423 14.823C54.7696 12.5888 50.6836 11.2882 46.4662 11.0426C42.2487 10.7971 38.0372 11.6147 34.225 13.4191C30.4128 15.2234 27.1242 17.9557 24.6663 21.3607C22.2084 24.7657 20.6615 28.7324 20.1698 32.8904C19.6782 37.0483 20.258 41.2619 21.855 45.1377C23.4521 49.0135 26.0142 52.425 29.3023 55.0537V77.2716C29.3027 77.5662 29.3789 77.8558 29.5239 78.1129C29.6689 78.37 29.8778 78.5861 30.1308 78.7407C30.4054 78.9107 30.7228 79.0005 31.0465 79C31.3169 79.0002 31.5836 78.938 31.8256 78.8185L45 72.2911L58.1773 78.8185C58.4432 78.9494 58.7383 79.0109 59.0349 78.9972C59.3314 78.9835 59.6195 78.895 59.8719 78.7401C60.1243 78.5852 60.3326 78.369 60.4771 78.112C60.6216 77.8551 60.6975 77.5658 60.6977 77.2716V55.0537C63.6018 52.7354 65.9448 49.8018 67.5546 46.4684C69.1644 43.135 70 39.4866 70 35.7912ZM23.4884 35.7912C23.4884 31.5752 24.75 27.4539 27.1137 23.9484C29.4775 20.443 32.8371 17.7108 36.7679 16.0974C40.6986 14.484 45.0239 14.0619 49.1967 14.8844C53.3696 15.7069 57.2026 17.7371 60.211 20.7182C63.2195 23.6994 65.2682 27.4976 66.0983 31.6325C66.9283 35.7675 66.5023 40.0535 64.8741 43.9486C63.246 47.8436 60.4888 51.1728 56.9512 53.5151C53.4137 55.8573 49.2546 57.1075 45 57.1075C39.2969 57.1007 33.8293 54.8526 29.7966 50.8565C25.7639 46.8604 23.4953 41.4425 23.4884 35.7912ZM57.2093 74.4746L45.7762 68.8114C45.5342 68.6917 45.2675 68.6294 44.9971 68.6294C44.7267 68.6294 44.46 68.6917 44.218 68.8114L32.7907 74.4746V57.3956C36.519 59.4711 40.7236 60.5613 45 60.5613C49.2764 60.5613 53.4809 59.4711 57.2093 57.3956V74.4746ZM45 51.3463C48.1047 51.3463 51.1397 50.434 53.7212 48.7248C56.3026 47.0156 58.3146 44.5862 59.5028 41.7439C60.6909 38.9015 61.0017 35.7739 60.396 32.7565C59.7903 29.7391 58.2953 26.9674 56.0999 24.792C53.9046 22.6166 51.1075 21.1351 48.0625 20.5349C45.0174 19.9347 41.8611 20.2427 38.9928 21.42C36.1244 22.5974 33.6727 24.5911 31.9479 27.1492C30.223 29.7072 29.3023 32.7146 29.3023 35.7912C29.3069 39.9152 30.9623 43.8691 33.9052 46.7853C36.848 49.7015 40.8381 51.3418 45 51.3463ZM45 23.6927C47.4148 23.6927 49.7753 24.4022 51.7831 25.7316C53.7909 27.061 55.3558 28.9506 56.2799 31.1613C57.204 33.372 57.4458 35.8046 56.9747 38.1515C56.5036 40.4983 55.3408 42.6541 53.6333 44.3461C51.9258 46.0381 49.7503 47.1903 47.3819 47.6572C45.0135 48.124 42.5587 47.8844 40.3277 46.9687C38.0967 46.053 36.1899 44.5023 34.8483 42.5127C33.5068 40.5231 32.7907 38.184 32.7907 35.7912C32.7907 32.5824 34.077 29.5051 36.3667 27.2362C38.6564 24.9673 41.7619 23.6927 45 23.6927Z" fill="#7B72EB"/>
</svg>
