<svg width="90" height="90" viewBox="0 0 90 90" fill="none" xmlns="http://www.w3.org/2000/svg">
<path fill-rule="evenodd" clip-rule="evenodd" d="M28.7999 21.969V41.931L62.9999 51.2595V12.6405L28.7999 21.969ZM24.2999 41.931C24.2997 42.9184 24.6243 43.8785 25.2236 44.6632C25.823 45.448 26.6638 46.0138 27.6164 46.2735L61.8164 55.602C62.4844 55.7841 63.1854 55.8096 63.8648 55.6765C64.5443 55.5435 65.1838 55.2554 65.7338 54.8348C66.2837 54.4142 66.7292 53.8723 67.0355 53.2514C67.3418 52.6306 67.5008 51.9474 67.4999 51.255V12.6405C67.5001 11.9485 67.3406 11.2659 67.034 10.6455C66.7274 10.0252 66.2818 9.48396 65.732 9.06385C65.1821 8.64374 64.5428 8.3561 63.8637 8.22327C63.1846 8.09044 62.484 8.11602 61.8164 8.29801L27.6164 17.6265C26.6638 17.8862 25.823 18.452 25.2236 19.2368C24.6243 20.0215 24.2997 20.9816 24.2999 21.969V41.931Z" fill="#7B72EB"/>
<path fill-rule="evenodd" clip-rule="evenodd" d="M15.5519 41.85H24.7499V22.05H15.5384C13.2107 24.8244 11.9359 28.3309 11.9383 31.9524C11.9408 35.574 13.2204 39.0788 15.5519 41.85ZM24.7499 46.35C25.9434 46.35 27.088 45.8759 27.9319 45.032C28.7758 44.1881 29.2499 43.0435 29.2499 41.85V22.05C29.2499 20.8565 28.7758 19.7119 27.9319 18.868C27.088 18.0241 25.9434 17.55 24.7499 17.55H14.6384C14.3015 17.5497 13.9681 17.6182 13.6586 17.7513C13.3491 17.8844 13.07 18.0793 12.8384 18.324C5.62945 25.9335 5.66095 37.9125 12.8294 45.558C13.0637 45.8066 13.346 46.0051 13.6593 46.1412C13.9726 46.2774 14.3103 46.3484 14.6519 46.35H24.7499Z" fill="#7B72EB"/>
<path fill-rule="evenodd" clip-rule="evenodd" d="M32.7104 48.915L21.4154 47.655L17.0144 65.25H28.8764L32.7104 48.915ZM21.9104 43.1865C20.8285 43.0655 19.7394 43.3408 18.8449 43.9613C17.9505 44.5819 17.3113 45.5057 17.0459 46.5615L12.6494 64.1565C12.4832 64.82 12.4704 65.5127 12.6121 66.1819C12.7537 66.8511 13.0461 67.4792 13.4669 68.0185C13.8877 68.5577 14.4259 68.994 15.0407 69.294C15.6554 69.594 16.3304 69.75 17.0144 69.75H28.8764C29.8918 69.7504 30.8774 69.4073 31.6731 68.7766C32.4689 68.1459 33.0279 67.2646 33.2594 66.276L37.0934 49.941C37.2393 49.321 37.2519 48.6771 37.1303 48.0518C37.0088 47.4266 36.7559 46.8342 36.3884 46.314C36.0208 45.7938 35.5471 45.3575 34.9984 45.034C34.4497 44.7105 33.8385 44.5072 33.2054 44.4375L21.9104 43.1865ZM83.7719 14.5035C84.1022 15.0001 84.2219 15.6075 84.1046 16.1922C83.9873 16.777 83.6427 17.2912 83.1464 17.622L76.3964 22.122C76.1508 22.2961 75.8728 22.4192 75.5789 22.4839C75.2849 22.5487 74.9809 22.5538 74.6849 22.4989C74.3889 22.444 74.1069 22.3303 73.8557 22.1645C73.6044 21.9987 73.389 21.7842 73.2222 21.5336C73.0553 21.2831 72.9405 21.0016 72.8844 20.7058C72.8283 20.41 72.8321 20.106 72.8957 19.8118C72.9592 19.5175 73.0811 19.239 73.2542 18.9928C73.4273 18.7465 73.6481 18.5374 73.9034 18.378L80.6534 13.878C81.15 13.5477 81.7574 13.428 82.3421 13.5453C82.9269 13.6626 83.4411 14.0072 83.7719 14.5035ZM72.8999 31.95C72.8999 31.3533 73.137 30.781 73.5589 30.359C73.9809 29.9371 74.5532 29.7 75.1499 29.7H81.8999C82.4967 29.7 83.0689 29.9371 83.4909 30.359C83.9129 30.781 84.1499 31.3533 84.1499 31.95C84.1499 32.5467 83.9129 33.119 83.4909 33.541C83.0689 33.963 82.4967 34.2 81.8999 34.2H75.1499C74.5532 34.2 73.9809 33.963 73.5589 33.541C73.137 33.119 72.8999 32.5467 72.8999 31.95ZM73.4264 41.985C73.6169 41.7588 73.8501 41.5724 74.1127 41.4364C74.3752 41.3004 74.662 41.2175 74.9567 41.1924C75.2513 41.1673 75.548 41.2006 75.8298 41.2902C76.1116 41.3799 76.3729 41.5243 76.5989 41.715L82.8089 46.9305C83.2409 47.3213 83.5045 47.8645 83.5442 48.4457C83.5839 49.0269 83.3967 49.6008 83.0218 50.0468C82.647 50.4927 82.1138 50.7759 81.5345 50.8367C80.9551 50.8976 80.3747 50.7314 79.9154 50.373L73.7054 45.153C73.2486 44.7697 72.9626 44.2208 72.9103 43.6267C72.858 43.0327 73.0436 42.4422 73.4264 41.985Z" fill="#7B72EB"/>
</svg>
