<svg width="90" height="90" viewBox="0 0 90 90" fill="none" xmlns="http://www.w3.org/2000/svg">
<path d="M18.75 75L27.7988 65.9512M27.7988 65.9512C29.3463 67.4988 31.1835 68.7263 33.2055 69.5639C35.2274 70.4014 37.3946 70.8325 39.5831 70.8325C41.7717 70.8325 43.9388 70.4014 45.9608 69.5639C47.9827 68.7263 49.82 67.4988 51.3675 65.9512C52.915 64.4037 54.1426 62.5665 54.9802 60.5445C55.8177 58.5225 56.2487 56.3554 56.2487 54.1668C56.2487 51.9783 55.8177 49.8112 54.9802 47.7892C54.1426 45.7672 52.915 43.93 51.3675 42.3825C48.2421 39.2571 44.0031 37.5012 39.5831 37.5012C35.1631 37.5012 30.9242 39.2571 27.7988 42.3825C24.6733 45.5079 22.9175 49.7468 22.9175 54.1668C22.9175 58.5868 24.6733 62.8258 27.7988 65.9512Z" stroke="#7B72EB" stroke-width="3" stroke-linecap="round" stroke-linejoin="round"/>
<path d="M11.25 56.955C8.78655 52.711 7.49258 47.8896 7.49997 42.9825C7.49997 27.5288 20.0925 15 35.625 15H54.375C69.9075 15 82.5 27.5288 82.5 42.9825C82.5 55.17 74.6737 65.535 63.75 69.375" stroke="#7B72EB" stroke-width="3" stroke-linecap="round" stroke-linejoin="round"/>
</svg>
