<svg width="90" height="90" viewBox="0 0 90 90" fill="none" xmlns="http://www.w3.org/2000/svg">
<path d="M70.3112 28.7996H64.5106L50.2787 43.0253C50.7688 44.2745 50.8139 45.6544 50.4063 46.933C49.9987 48.2116 49.1633 49.3108 48.0406 50.0458C46.9178 50.7809 45.5762 51.1069 44.2413 50.9691C42.9065 50.8313 41.6597 50.2381 40.7108 49.2892C39.7619 48.3403 39.1687 47.0935 39.0309 45.7587C38.8931 44.4238 39.2191 43.0822 39.9542 41.9594C40.6892 40.8367 41.7884 40.0013 43.067 39.5937C44.3456 39.1861 45.7255 39.2312 46.9747 39.7213L61.2035 25.4925V19.6919C61.2038 18.9158 61.5121 18.1714 62.0607 17.6223L67.453 12.23C67.5527 12.1296 67.678 12.0582 67.8153 12.0236C67.9526 11.989 68.0967 11.9925 68.2322 12.0336C68.5096 12.1147 68.7153 12.3453 68.7714 12.629L70.2052 19.801L77.3741 21.2348C77.6547 21.2909 77.8853 21.4966 77.9664 21.774C78.0073 21.9088 78.0109 22.0521 77.9769 22.1888C77.9429 22.3254 77.8725 22.4503 77.7731 22.5502L72.3777 27.9425C71.8294 28.4903 71.0863 28.7985 70.3112 28.7996Z" fill="#7B72EB"/>
<path d="M15.6897 45C15.6897 52.7736 18.7777 60.2288 24.2745 65.7255C29.7712 71.2223 37.2264 74.3103 45 74.3103C48.8491 74.3103 52.6605 73.5522 56.2166 72.0792C59.7727 70.6063 63.0038 68.4473 65.7255 65.7255C68.4473 63.0038 70.6062 59.7727 72.0792 56.2166C73.5522 52.6605 74.3103 48.8491 74.3103 45C74.3103 42.1925 73.9164 39.4787 73.1817 36.9119C73.0357 36.3226 73.1239 35.6995 73.4279 35.1739C73.7319 34.6483 74.228 34.2611 74.8117 34.0939C75.3953 33.9266 76.0212 33.9922 76.5574 34.277C77.0937 34.5618 77.4986 35.0435 77.6869 35.6207C78.5435 38.6033 79 41.7485 79 45C79 63.7774 63.7774 79 45 79C26.2226 79 11 63.7774 11 45C11 26.2226 26.2226 11 45 11C48.1733 10.9969 51.3279 11.4377 54.3793 12.31C54.6768 12.3935 54.9549 12.5349 55.1976 12.7262C55.4403 12.9175 55.6427 13.1548 55.7934 13.4247C55.944 13.6945 56.0398 13.9914 56.0753 14.2983C56.1108 14.6053 56.0853 14.9162 56.0002 15.2133C55.9151 15.5104 55.7722 15.7877 55.5795 16.0293C55.3869 16.2709 55.1485 16.4721 54.8778 16.6212C54.6072 16.7704 54.3098 16.8646 54.0026 16.8984C53.6955 16.9322 53.3847 16.905 53.0881 16.8183C50.4577 16.0675 47.7354 15.6876 45 15.6897C37.2264 15.6897 29.7712 18.7777 24.2745 24.2745C18.7777 29.7712 15.6897 37.2264 15.6897 45Z" fill="#7B72EB"/>
<path d="M29.7025 44.9947C29.7112 47.0721 30.1434 49.1259 30.9727 51.0307C31.802 52.9356 33.0109 54.6515 34.5257 56.0737C36.0405 57.4958 37.8293 58.5945 39.783 59.3025C41.7367 60.0105 43.8143 60.313 45.8888 60.1916C47.9634 60.0701 49.9914 59.5273 51.8491 58.5962C53.7067 57.665 55.3551 56.3652 56.6935 54.776C58.0319 53.1868 59.0322 51.3416 59.6334 49.353C60.2346 47.3644 60.4241 45.2742 60.1902 43.21C60.1244 42.792 60.1728 42.3639 60.3305 41.9711C60.4882 41.5783 60.7492 41.2355 61.0859 40.979C61.4226 40.7224 61.8225 40.5617 62.2431 40.5138C62.6637 40.466 63.0895 40.5327 63.4753 40.7071C64.2628 41.0584 64.7931 41.808 64.8621 42.6674C65.3493 46.7927 64.5387 50.9672 62.5431 54.6108C60.5474 58.2543 57.4659 61.1859 53.7268 62.9979C49.9876 64.8099 45.7767 65.4124 41.6792 64.7217C37.5817 64.0309 33.8013 62.0812 30.8634 59.1436C27.9263 56.2091 25.9754 52.4337 25.2814 48.341C24.5874 44.2483 25.1846 40.041 26.9901 36.3029C28.7957 32.5647 31.7202 29.4809 35.3579 27.479C38.9957 25.4772 43.1664 24.6566 47.2917 25.1311C47.6036 25.16 47.9065 25.2509 48.1828 25.3984C48.459 25.5458 48.7031 25.747 48.9006 25.99C49.0981 26.233 49.2451 26.5129 49.333 26.8134C49.4208 27.114 49.4478 27.429 49.4123 27.7401C49.3768 28.0512 49.2795 28.352 49.1262 28.625C48.9729 28.898 48.7666 29.1377 48.5194 29.33C48.2722 29.5222 47.9891 29.6633 47.6867 29.7447C47.3843 29.8262 47.0687 29.8465 46.7583 29.8045C44.6154 29.5568 42.4444 29.765 40.3877 30.4153C38.331 31.0656 36.4351 32.1434 34.8244 33.5778C33.2137 35.0123 31.9248 36.7711 31.042 38.7387C30.1593 40.7063 29.7028 42.8383 29.7025 44.9947Z" fill="#7B72EB"/>
</svg>
