<svg width="90" height="90" viewBox="0 0 90 90" fill="none" xmlns="http://www.w3.org/2000/svg">
<path d="M17.3081 71.25C15.5819 71.25 14.1406 70.6719 12.9844 69.5156C11.8281 68.3594 11.25 66.9181 11.25 65.1919V24.8081C11.25 23.0819 11.8281 21.6406 12.9844 20.4844C14.1406 19.3281 15.5819 18.75 17.3081 18.75H72.6919C74.4181 18.75 75.8594 19.3281 77.0156 20.4844C78.1719 21.6406 78.75 23.0819 78.75 24.8081V65.1919C78.75 66.9181 78.1719 68.3594 77.0156 69.5156C75.8594 70.6719 74.4181 71.25 72.6919 71.25H17.3081ZM17.3081 67.5H72.6919C73.2694 67.5 73.7984 67.2597 74.2791 66.7791C74.7597 66.2984 75 65.7694 75 65.1919V30H15V65.1919C15 65.7694 15.2403 66.2984 15.7209 66.7791C16.2016 67.2597 16.7306 67.5 17.3081 67.5Z" fill="#7B72EB"/>
</svg>
