<svg width="19" height="19" viewBox="0 0 19 19" fill="none" xmlns="http://www.w3.org/2000/svg">
<path fill-rule="evenodd" clip-rule="evenodd" d="M0.3125 2.9375C0.3125 2.24131 0.589062 1.57363 1.08134 1.08134C1.57363 0.589062 2.24131 0.3125 2.9375 0.3125H4.138C4.8905 0.3125 5.54675 0.82525 5.72962 1.555L6.6965 5.42513C6.77427 5.73839 6.75816 6.06761 6.65018 6.37178C6.5422 6.67595 6.34713 6.94164 6.08925 7.13575L4.95788 7.9845C4.83975 8.07287 4.81437 8.20237 4.84763 8.2925C5.34171 9.63535 6.12162 10.8548 7.13339 11.8666C8.14516 12.8784 9.36465 13.6583 10.7075 14.1524C10.7976 14.1856 10.9263 14.1602 11.0155 14.0421L11.8643 12.9107C12.0584 12.6529 12.324 12.4578 12.6282 12.3498C12.9324 12.2418 13.2616 12.2257 13.5749 12.3035L17.445 13.2704C18.1747 13.4532 18.6875 14.1095 18.6875 14.8629V16.0625C18.6875 16.7587 18.4109 17.4264 17.9187 17.9187C17.4264 18.4109 16.7587 18.6875 16.0625 18.6875H14.0938C6.483 18.6875 0.3125 12.517 0.3125 4.90625V2.9375Z" fill="#7B72EB"/>
</svg>
